<?xml version="1.0" encoding="utf-8"?>
<!-- Generator: Adobe Illustrator 19.2.0, SVG Export Plug-In . SVG Version: 6.00 Build 0)  -->
<svg version="1.1" id="Layer_1" xmlns="http://www.w3.org/2000/svg" xmlns:xlink="http://www.w3.org/1999/xlink" x="0px" y="0px"
	 viewBox="0 0 12.8 11.9" style="enable-background:new 0 0 12.8 11.9;" xml:space="preserve">
<g>
	<g>
		<path d="M10.2,5.5c0.9,0,1.7-0.4,2.2-1.1l-0.7-0.5c-0.4,0.5-0.9,0.7-1.5,0.7c-1,0-1.8-0.8-1.8-1.9c0-1,0.7-1.9,1.8-1.9
			c0.5,0,0.8,0.1,1.1,0.3V2h0.9V0.7l-0.2-0.1C11.6,0.2,10.9,0,10.2,0C8.7,0,7.5,1.2,7.5,2.7C7.5,4.3,8.7,5.5,10.2,5.5z M12.1,10.9
			l0-1.3V6.6h-1.8v0.9h0.9v2.1c0,0.9-0.7,1.5-1.4,1.5c-0.7,0-1.1-0.5-1.1-1.4V6.6H6.9v0.9h0.8v2.4c0,1.2,0.7,2.1,1.9,2.1
			c0.7,0,1.2-0.4,1.6-1h0l0.1,0.8h1.4v-0.9H12.1z M7.3,0.1H5.8L4.4,4h0L3.1,0.1H1.4V1h0.9l1.6,4.4h0.8l0,0l0,0L6.4,1h0.9V0.1z
			 M0,11.8h0.9v-0.9H0V11.8z M3.5,7.6L3.5,7.6l-0.1-1H1.8v0.8h0.9v3.5H1.8v0.9h4v-0.8H3.6V8.8C3.7,8,4.3,7.3,5.1,7.3h0l0,0.8H6V6.5
			H5.3C4.5,6.5,3.9,7,3.5,7.6z"/>
	</g>
</g>
</svg>
